<svg width="154" height="154" viewBox="0 0 154 154" fill="none" xmlns="http://www.w3.org/2000/svg">
<g filter="url(#filter0_d)">
<circle cx="77" cy="75" r="57" fill="white"/>
</g>
<g style="mix-blend-mode:multiply" opacity="0.38">
<circle cx="77.5" cy="75.5" r="71.5" fill="#D5DDEA"/>
</g>
<path d="M92.9965 99.9534C92.5312 99.9534 92.0701 99.7531 91.739 99.3654C91.127 98.6423 91.1899 97.5446 91.8857 96.9043C96.4504 92.7139 99.2253 86.89 99.7073 80.4998C100.189 74.0792 98.2696 67.9722 94.2959 63.2982C94.2665 63.2677 91.4581 59.9703 89.9701 58.6243C89.2701 57.9927 89.1946 56.895 89.8024 56.1676C90.4102 55.4401 91.4707 55.3617 92.1665 55.9933C93.8222 57.4874 96.6851 60.8458 96.8067 60.9896C101.384 66.3779 103.601 73.3997 103.048 80.7699C102.499 88.0661 99.3217 94.7263 94.1031 99.5179C93.7887 99.8097 93.3905 99.9534 92.9965 99.9534Z" fill="#8493AD"/>
<path d="M78.1992 104.266C77.7339 104.266 77.2728 104.066 76.9417 103.678C76.3297 102.955 76.3926 101.857 77.0884 101.217L86.0586 92.9842C89.5754 89.7521 91.6712 85.2873 91.9604 80.4086C92.2496 75.53 90.6987 70.8299 87.5885 67.1753C87.5634 67.1448 85.5556 64.7708 84.1681 63.5685C83.4555 62.9544 83.3591 61.8523 83.9543 61.1162C84.5454 60.3756 85.6059 60.2755 86.3143 60.894C87.9071 62.2705 90.0155 64.7664 90.1077 64.8753C93.8047 69.2226 95.6533 74.8156 95.3096 80.6264C94.9658 86.4329 92.4676 91.7515 88.2801 95.6021L79.31 103.83C78.9914 104.122 78.5932 104.266 78.1992 104.266Z" fill="#8493AD"/>
<path d="M60.5941 111.101C60.133 111.101 59.6761 110.905 59.345 110.522C58.7288 109.803 58.7875 108.701 59.4791 108.061L80.0602 88.9381C85.153 84.2598 85.6434 76.1708 81.1709 70.8696L81.0829 70.7782C81.0578 70.752 81.0368 70.7259 81.0117 70.6998C80.6805 70.3121 80.2236 70.0812 79.7164 70.0551C79.2092 70.0246 78.723 70.1988 78.3458 70.5473C77.4991 71.327 77.4446 72.416 78.2032 73.3264C79.9637 75.426 80.1691 77.7956 80.1691 79.3942C80.1691 82.2038 78.8362 84.8435 76.1996 87.2393L65.9804 96.6394C65.2887 97.2753 64.2283 97.21 63.6121 96.4913C62.9959 95.7725 63.063 94.6705 63.7546 94.0302L73.9822 84.6213C75.8895 82.8877 76.8116 81.1801 76.8116 79.3942C76.8116 78.1353 76.6733 76.8111 75.6715 75.6176C73.7098 73.2785 73.9026 69.981 76.1158 67.9424C77.1595 66.9798 78.505 66.5006 79.9009 66.5834C81.2841 66.6662 82.55 67.2934 83.4764 68.3563L83.5686 68.4521C83.5937 68.4782 83.6147 68.5044 83.6398 68.5305C89.3698 75.2691 88.762 85.5927 82.2775 91.5516L61.7049 110.666C61.3905 110.953 60.9923 111.101 60.5941 111.101Z" fill="#8493AD"/>
<path d="M59.84 91.1982C59.3747 91.1982 58.9094 90.9978 58.5783 90.6058L56.1471 87.7309C48.1075 78.248 48.9626 63.6817 58.0543 55.2661L66.7856 47.3687C67.4856 46.7371 68.5419 46.8155 69.1497 47.5386C69.7574 48.2661 69.682 49.3638 68.9862 49.9954L60.2675 57.8796C52.5674 65.0146 51.8381 77.3768 58.6663 85.4266L61.0975 88.3015C61.7095 89.0246 61.6382 90.1266 60.9466 90.7626C60.628 91.0544 60.234 91.1982 59.84 91.1982Z" fill="#8493AD"/>
<path d="M65.5405 86.1893C65.0752 86.1893 64.6099 85.9889 64.2788 85.5926L62.2249 83.1532C56.4991 76.4233 57.111 66.0954 63.5913 60.1408L79.0879 45.605C79.7753 44.9604 80.8358 45.017 81.4562 45.7314C82.0766 46.4457 82.0221 47.5478 81.3346 48.1925L65.8255 62.7413C60.7159 67.437 60.2338 75.5565 64.7441 80.8533L66.8022 83.3013C67.4141 84.0244 67.3429 85.1265 66.6429 85.7581C66.3285 86.0456 65.9345 86.1893 65.5405 86.1893Z" fill="#8493AD"/>
<path d="M70.487 80.6129C70.0343 80.6129 69.5816 80.4212 69.2505 80.0466L68.7894 79.5239C64.9205 74.9806 65.3229 68.0547 69.6696 64.0603L95.4903 40.2333C96.1819 39.593 97.2424 39.6583 97.8586 40.3814C98.4747 41.1002 98.4118 42.2022 97.716 42.8425L71.8954 66.6695C68.9361 69.392 68.6594 74.1138 71.2834 77.1935L71.7235 77.6944C72.3481 78.4044 72.302 79.5065 71.6229 80.1555C71.3002 80.4604 70.8936 80.6129 70.487 80.6129Z" fill="#8493AD"/>
<defs>
<filter id="filter0_d" x="0" y="0" width="154" height="154" filterUnits="userSpaceOnUse" color-interpolation-filters="sRGB">
<feFlood flood-opacity="0" result="BackgroundImageFix"/>
<feColorMatrix in="SourceAlpha" type="matrix" values="0 0 0 0 0 0 0 0 0 0 0 0 0 0 0 0 0 0 127 0"/>
<feOffset dy="2"/>
<feGaussianBlur stdDeviation="10"/>
<feColorMatrix type="matrix" values="0 0 0 0 0.723333 0 0 0 0 0.728092 0 0 0 0 0.904167 0 0 0 0.24 0"/>
<feBlend mode="normal" in2="BackgroundImageFix" result="effect1_dropShadow"/>
<feBlend mode="normal" in="SourceGraphic" in2="effect1_dropShadow" result="shape"/>
</filter>
</defs>
</svg>
