<svg width="46" height="59" viewBox="0 0 46 59" fill="none" xmlns="http://www.w3.org/2000/svg">
<path d="M36.8283 49.6021C36.4238 49.6021 36.023 49.4369 35.7351 49.1173C35.203 48.5211 35.2577 47.616 35.8626 47.088C39.8311 43.6329 42.2435 38.831 42.6626 33.5621C43.0817 28.2682 41.4127 23.2328 37.958 19.379C37.9325 19.3539 35.4909 16.635 34.1973 15.5252C33.5887 15.0045 33.5231 14.0994 34.0515 13.4996C34.5799 12.8998 35.5019 12.8351 36.1068 13.3559C37.5462 14.5878 40.0352 17.3569 40.1409 17.4755C44.1203 21.9182 46.048 27.7079 45.567 33.7848C45.0896 39.8007 42.3273 45.2923 37.7904 49.243C37.5171 49.4836 37.1709 49.6021 36.8283 49.6021Z" fill="#8493AD"/>
<path d="M23.9642 53.1584C23.5597 53.1584 23.1588 52.9932 22.8709 52.6735C22.3389 52.0773 22.3936 51.1723 22.9985 50.6443L30.7969 43.8562C33.8544 41.1913 35.6764 37.5099 35.9279 33.4873C36.1793 29.4647 34.831 25.5894 32.1271 22.5761C32.1052 22.5509 30.3596 20.5935 29.1534 19.6023C28.5339 19.0958 28.4501 18.1872 28.9676 17.5802C29.4814 16.9696 30.4034 16.887 31.0192 17.397C32.404 18.532 34.237 20.5899 34.3172 20.6797C37.5313 24.2641 39.1384 28.8757 38.8396 33.6669C38.5407 38.4545 36.3688 42.8398 32.7283 46.0147L24.9299 52.7992C24.6529 53.0399 24.3067 53.1584 23.9642 53.1584Z" fill="#8493AD"/>
<path d="M8.65896 58.7995C8.25811 58.7995 7.8609 58.6378 7.57301 58.3218C7.03732 57.7292 7.08834 56.8205 7.68962 56.2925L25.5823 40.5255C30.01 36.6681 30.4363 29.9986 26.548 25.6276L26.4715 25.5522C26.4497 25.5306 26.4314 25.5091 26.4096 25.4875C26.1217 25.1679 25.7245 24.9775 25.2835 24.956C24.8426 24.9309 24.4199 25.0745 24.0919 25.3618C23.3558 26.0047 23.3084 26.9026 23.968 27.6533C25.4985 29.3844 25.6771 31.3382 25.6771 32.6563C25.6771 34.9729 24.5183 37.1494 22.2261 39.1248L13.3417 46.8754C12.7404 47.3998 11.8184 47.3459 11.2827 46.7533C10.7471 46.1607 10.8054 45.252 11.4066 44.7241L20.2983 36.9662C21.9564 35.5368 22.7581 34.1289 22.7581 32.6563C22.7581 31.6184 22.6379 30.5265 21.7669 29.5424C20.0615 27.6138 20.2291 24.8949 22.1532 23.2141C23.0606 22.4203 24.2304 22.0253 25.4439 22.0935C26.6464 22.1617 27.747 22.6789 28.5523 23.5553L28.6325 23.6343C28.6544 23.6558 28.6726 23.6774 28.6944 23.6989C33.676 29.2551 33.1476 37.7672 27.5101 42.6804L9.62466 58.4403C9.35135 58.6773 9.00516 58.7995 8.65896 58.7995Z" fill="#8493AD"/>
<path d="M8.00281 42.3854C7.59831 42.3854 7.19381 42.2202 6.90592 41.8969L4.79232 39.5265C-2.19714 31.7076 -1.45373 19.6973 6.45041 12.7584L14.0411 6.24688C14.6497 5.7261 15.568 5.79075 16.0964 6.38695C16.6248 6.98674 16.5592 7.89182 15.9543 8.4126L8.37451 14.9134C1.68023 20.7964 1.04615 30.9893 6.98245 37.6265L9.09605 39.997C9.6281 40.5932 9.56615 41.5018 8.96486 42.0262C8.68791 42.2668 8.34536 42.3854 8.00281 42.3854Z" fill="#8493AD"/>
<path d="M12.9588 38.2547C12.5543 38.2547 12.1498 38.0895 11.8619 37.7626L10.0763 35.7513C5.09842 30.2023 5.63046 21.6867 11.2643 16.777L24.7367 4.79191C25.3343 4.26036 26.2563 4.30705 26.7956 4.89607C27.335 5.48509 27.2876 6.39376 26.6899 6.92531L13.2066 18.9212C8.76442 22.7929 8.34534 29.4876 12.2664 33.855L14.0557 35.8735C14.5878 36.4697 14.5258 37.3783 13.9172 37.8991C13.6439 38.1362 13.3014 38.2547 12.9588 38.2547Z" fill="#8493AD"/>
<path d="M17.2589 33.657C16.8654 33.657 16.4718 33.499 16.1839 33.1901L15.7831 32.7591C12.4195 29.0131 12.7694 23.3025 16.5483 20.009L38.9962 0.363085C39.5975 -0.164877 40.5195 -0.111003 41.0552 0.485199C41.5909 1.07781 41.5362 1.98648 40.9313 2.51444L18.4834 22.1604C15.9106 24.4051 15.6701 28.2984 17.9513 30.8376L18.334 31.2507C18.8769 31.8361 18.8368 32.7448 18.2465 33.2799C17.9659 33.5313 17.6124 33.657 17.2589 33.657Z" fill="#8493AD"/>
</svg>
